<svg width="525" height="440" viewBox="0 0 525 440" fill="none" xmlns="http://www.w3.org/2000/svg">
<path d="M94.0546 275.318C90.0218 275.96 86.4262 276.749 82.7905 277.045C80.751 277.211 77.5493 278.56 77.1552 274.988C76.8197 271.946 79.8259 272.163 81.8303 271.73C86.4028 270.742 90.8684 269.454 95.0899 267.404C113.333 258.547 123.528 243.421 128.653 224.337C130.746 216.541 131.029 208.576 131.023 200.568C131.007 177.246 131.03 153.924 131.069 130.602C131.08 124.038 131.349 123.816 137.766 123.794C141.098 123.782 144.442 123.957 147.758 123.722C151.782 123.437 153.023 125.324 152.969 129.049C152.588 155.356 153.708 181.671 152.294 207.975C150.518 241.012 128.482 266.762 94.0546 275.318Z" fill="#031B35"/>
<path d="M230.791 137.911C233.372 133.507 234.519 128.716 238.459 123.982C261.704 168.172 285.017 211.326 307.733 256.22C299.534 256.22 292.624 256.265 285.714 256.193C283.709 256.172 283.092 254.378 282.318 252.922C264.187 218.836 246.103 184.725 227.892 150.681C225.125 145.51 229.411 142.317 230.791 137.911Z" fill="#031B35"/>
<path d="M324.79 232C324.787 198.032 324.771 164.563 324.791 131.095C324.796 123.816 324.856 123.816 331.86 123.782C346.254 123.713 346.252 123.713 346.252 138.223C346.25 175.354 346.254 212.486 346.25 249.617C346.249 256.322 346.237 256.322 339.702 256.35C324.807 256.413 324.806 256.413 324.792 241.492C324.789 238.494 324.791 235.497 324.79 232Z" fill="#031B35"/>
<path d="M370.058 172.057C385.512 157.101 400.778 142.459 415.854 127.624C419.304 124.23 422.859 122.834 429.076 124.816C408.847 144.259 389.213 163.13 369.4 182.173C392.321 206.622 437.809 255.145 437.809 255.145C437.809 255.145 429.512 256.842 424.19 256.393C414.758 255.598 408.16 254.034 401.854 246.982C386.319 229.607 370.065 212.87 353.919 196.05C350.807 192.808 350.49 190.687 354.005 187.573C359.483 182.722 364.557 177.415 370.058 172.057Z" fill="#031B35"/>
<path d="M203.617 191.663C206.431 186.411 209.085 181.493 211.947 176.191C215.519 179.443 216.483 182.323 214.388 186.239C202.709 208.07 179.606 251.869 179.606 251.869C179.606 251.869 175.128 257.295 169.856 255.362C181.161 234.044 192.309 213.021 203.617 191.663Z" fill="#031B35"/>
<path d="M215 308.485V292H216.498V307.133H224.316V308.485H215ZM243.623 292V308.485H242.125V292H243.623ZM262.422 308.485V292H271.914V293.352H263.92V299.558H271.169V300.911H263.92V308.485H262.422ZM290.076 308.485V292H299.592V293.352H291.573V299.558H299.087V300.911H291.573V307.133H299.752V308.485H290.076Z" fill="#031B35"/>
<path d="M335 300H367" stroke="#031B35"/>
<path d="M149 300H181" stroke="#031B35"/>
</svg>
